<svg version="1.2" xmlns="http://www.w3.org/2000/svg" viewBox="0 0 260 70" width="260" height="70"><style>.a{fill:#0066d0}.b{fill:#00cd98}</style><path fill-rule="evenodd" class="a" d="m130.8 53v-36.5h4.9v18.1l17.7-18.1h6.3l-14.1 14.5 14.8 22h-5.4l-12.6-18.8-6.7 6.8v12zm45.9-28q5.9 0 9.2 3.8 3.4 3.8 3.4 10.6 0 6.7-3.4 10.5-3.3 3.8-9.2 3.8-5.9 0-9.2-3.8-3.3-3.8-3.3-10.5 0-6.8 3.3-10.6 3.3-3.8 9.2-3.8zm0 3.8q-3.6 0-5.7 2.8-2.1 2.8-2.1 7.8 0 4.9 2.1 7.7 2.1 2.8 5.7 2.8 3.6 0 5.7-2.8 2.1-2.9 2.1-7.7 0-4.9-2.1-7.7-2.1-2.9-5.7-2.9zm19.9 24.2v-27.3h6.5l7.8 18.3 7.8-18.3h6.5v27.3h-4.5v-23l-7.6 17.8h-4.5l-7.5-17.8v23z"/><path fill-rule="evenodd" class="b" d="m34.9 20.7v-4.2h30.8v4.2h-13v32.3h-4.9v-32.3zm58.8 17.5v2.2h-20.7q0.3 4.6 2.8 7.1 2.5 2.4 7 2.4 2.6 0 5-0.6 2.4-0.7 4.8-1.9v4.2q-2.4 1-4.9 1.6-2.6 0.5-5.2 0.5-6.5 0-10.4-3.8-3.8-3.8-3.8-10.3 0-6.7 3.7-10.6 3.6-4 9.7-4 5.6 0 8.8 3.6 3.2 3.5 3.2 9.6zm-20.5-1.3h16q-0.1-3.7-2.1-5.9-2-2.2-5.3-2.2-3.8 0-6 2.1-2.3 2.2-2.6 6zm45.3-11.2h5.3l-9.9 13.3 10.4 14h-5.3l-8-10.7-7.9 10.7h-5.3l10.6-14.3-9.7-13h5.3l7.2 9.7z"/></svg>