<svg version="1.2" xmlns="http://www.w3.org/2000/svg" viewBox="0 0 34 34" width="34" height="34"><style>.a{fill:#ccc}</style><path fill-rule="evenodd" class="a" d="m24.1 8c0 3.7-4.3 10.2-6.2 12.8-0.5 0.7-1.3 0.7-1.8 0-1.9-2.6-6.2-9.1-6.2-12.8 0-4.4 3.2-8 7.1-8 3.9 0 7.1 3.6 7.1 8zm0.5 5.4q0.3-0.7 0.5-1.4 0.1-0.1 0.1-0.2l6.9-3.1c0.9-0.5 1.9 0.3 1.9 1.5v18c0 0.7-0.4 1.3-0.9 1.5l-8.5 3.9zm-15.7-1.4q0.2 0.7 0.5 1.4v16.8l-7.5 3.4c-0.9 0.4-1.9-0.4-1.9-1.5v-18.1c0-0.6 0.4-1.2 0.9-1.5 0 0 7.2-3.2 7.2-3.2 0.2 0.9 0.4 1.8 0.8 2.7zm-0.8-2.7q0 0 0 0 0 0 0 0zm11.2 12.9c0.9-1.2 2.2-3.1 3.4-5.2v16.7l-11.4-3.7v-13c1.2 2.1 2.5 4 3.4 5.2 1.2 1.7 3.4 1.7 4.6 0zm-2.3-12c0.6 0 1.2-0.3 1.7-0.8 0.4-0.5 0.7-1.2 0.7-1.9 0-0.7-0.3-1.4-0.7-1.9-0.5-0.5-1.1-0.8-1.7-0.8-0.6 0-1.2 0.3-1.7 0.8-0.4 0.5-0.7 1.2-0.7 1.9 0 0.7 0.3 1.4 0.7 1.9 0.5 0.5 1.1 0.8 1.7 0.8z"/></svg>