<svg version="1.2" xmlns="http://www.w3.org/2000/svg" viewBox="0 0 34 34" width="34" height="34"><style>.a{fill:#ccc}</style><path fill-rule="evenodd" class="a" d="m7.7 0.4c1.4-0.4 2.7 0.2 3.3 1.5l2.6 6.2c0.4 1.2 0 2.5-0.9 3.2l-3.3 2.7c2.3 4.5 6.1 8.3 10.6 10.6l2.7-3.3c0.7-0.9 2-1.3 3.2-0.7l6.2 2.4c1.3 0.6 1.9 1.9 1.5 3.3l-1.5 5.8c-0.4 1.1-1.3 1.9-2.6 1.9-16.3 0-29.5-13.2-29.5-29.5 0-1.3 0.8-2.2 1.9-2.6zm10.8 0c8.5 0 15.3 6.8 15.3 15.3 0 0.7-0.8 1.5-1.6 1.5-0.9 0-1.7-0.8-1.7-1.5 0-6.8-5.4-12.3-12-12.3-1 0-1.6-0.6-1.6-1.5 0-0.9 0.6-1.5 1.6-1.5zm-1.6 7.9c0-0.9 0.6-1.7 1.6-1.7 4.9 0 8.8 4 8.8 9.1 0 0.7-0.5 1.5-1.5 1.5-0.9 0-1.5-0.8-1.5-1.5 0-3.2-2.6-5.9-5.8-5.9-1 0-1.6-0.7-1.6-1.5zm2.1 4.7c0.6 0 1.2 0.2 1.5 0.6 0.4 0.4 0.6 1 0.6 1.5 0 0.6-0.2 1.2-0.6 1.5-0.3 0.4-0.9 0.6-1.5 0.6-0.5 0-1.1-0.2-1.5-0.6-0.4-0.3-0.6-0.9-0.6-1.5 0-0.5 0.2-1.1 0.6-1.5 0.4-0.4 1-0.6 1.5-0.6z"/></svg>